<svg width="28" height="28" viewBox="0 0 28 28" fill="none" xmlns="http://www.w3.org/2000/svg">
<g id="dds2_close-cir" clip-path="url(#clip0_6088_1828)">
<g id="Vector">
<path d="M19.25 7.4025L14 12.6525L8.75001 7.4025L7.42001 8.75L12.67 14L7.42001 19.25L8.73251 20.5625L13.9825 15.3125L19.2325 20.5625L20.5625 19.25L15.3125 14L20.5625 8.75L19.25 7.4025Z" fill="#0672CB"/>
<path d="M14 0C11.2311 0 8.52431 0.821086 6.22202 2.35943C3.91973 3.89777 2.12532 6.08427 1.06569 8.64243C0.00606593 11.2006 -0.271181 14.0155 0.269012 16.7313C0.809205 19.447 2.14258 21.9416 4.10051 23.8995C6.05845 25.8574 8.55301 27.1908 11.2687 27.731C13.9845 28.2712 16.7994 27.9939 19.3576 26.9343C21.9157 25.8747 24.1022 24.0803 25.6406 21.778C27.1789 19.4757 28 16.7689 28 14C28 10.287 26.525 6.72601 23.8995 4.10051C21.274 1.475 17.713 0 14 0ZM14 26.1275C11.6014 26.1275 9.25669 25.4162 7.26233 24.0836C5.26797 22.7511 3.71356 20.857 2.79566 18.641C1.87776 16.425 1.63759 13.9865 2.10553 11.634C2.57348 9.28154 3.72851 7.12062 5.42457 5.42456C7.12063 3.7285 9.28154 2.57347 11.634 2.10553C13.9866 1.63758 16.425 1.87775 18.641 2.79565C20.857 3.71355 22.7511 5.26796 24.0837 7.26232C25.4162 9.25668 26.1275 11.6014 26.1275 14C26.1229 17.215 24.8437 20.297 22.5703 22.5703C20.297 24.8437 17.215 26.1229 14 26.1275Z" fill="#0672CB"/>
</g>
</g>
<defs>
<clipPath id="clip0_6088_1828">
<rect width="28" height="28" fill="white"/>
</clipPath>
</defs>
</svg>
