<svg width="28" height="28" viewBox="0 0 28 28" fill="none" xmlns="http://www.w3.org/2000/svg">
<g id="dds2_rack">
<path id="Vector" d="M14.3674 0L4.56738 5.7925V28H23.4499V2.8875L14.3674 0ZM6.40488 26.145V6.895L14.4724 2.0825V26.145H6.40488ZM20.8599 26.145L17.2199 24.745V22.4525L20.9299 23.9225V26.145H20.8599ZM20.8599 21.2625L17.1499 19.8275V17.5L20.8599 18.97V21.2625ZM20.8599 16.3275L17.2024 14.91V12.6175L20.9999 14.0875V16.3275H20.8599ZM20.8599 11.41L17.2024 9.9925V7.7L20.9999 9.17V11.41H20.8599ZM20.8599 6.4925L17.2024 5.075V2.7825L20.9999 4.2525V6.4925H20.8599Z" fill="#0672CB"/>
</g>
</svg>
